<svg xmlns="http://www.w3.org/2000/svg">
<!-- Header -->
<symbol viewBox="0 0 24 24" id="home">
<path fill-rule="evenodd" clip-rule="evenodd" d="M12.2796 3.71579C12.097 3.66261 11.903 3.66261 11.7203 3.71579C11.6678 3.7311 11.5754 3.7694 11.3789 3.91817C11.1723 4.07463 10.9193 4.29855 10.5251 4.64896L5.28544 9.3064C4.64309 9.87739 4.46099 10.0496 4.33439 10.24C4.21261 10.4232 4.12189 10.6252 4.06588 10.8379C4.00765 11.0591 3.99995 11.3095 3.99995 12.169V17.17C3.99995 18.041 4.00076 18.6331 4.03874 19.0905C4.07573 19.536 4.14275 19.7634 4.22513 19.9219C4.41488 20.2872 4.71272 20.5851 5.07801 20.7748C5.23658 20.8572 5.46397 20.9242 5.90941 20.9612C6.36681 20.9992 6.95893 21 7.82995 21H7.99995V18C7.99995 15.7909 9.79081 14 12 14C14.2091 14 16 15.7909 16 18V21H16.17C17.041 21 17.6331 20.9992 18.0905 20.9612C18.5359 20.9242 18.7633 20.8572 18.9219 20.7748C19.2872 20.5851 19.585 20.2872 19.7748 19.9219C19.8572 19.7634 19.9242 19.536 19.9612 19.0905C19.9991 18.6331 20 18.041 20 17.17V12.169C20 11.3095 19.9923 11.0591 19.934 10.8379C19.878 10.6252 19.7873 10.4232 19.6655 10.24C19.5389 10.0496 19.3568 9.87739 18.7145 9.3064L13.4748 4.64896C13.0806 4.29855 12.8276 4.07463 12.621 3.91817C12.4245 3.7694 12.3321 3.7311 12.2796 3.71579ZM11.1611 1.79556C11.709 1.63602 12.2909 1.63602 12.8388 1.79556C13.2189 1.90627 13.5341 2.10095 13.8282 2.32363C14.1052 2.53335 14.4172 2.81064 14.7764 3.12995L20.0432 7.81159C20.0716 7.83679 20.0995 7.86165 20.1272 7.88619C20.6489 8.34941 21.0429 8.69935 21.3311 9.13277C21.5746 9.49916 21.7561 9.90321 21.8681 10.3287C22.0006 10.832 22.0004 11.359 22 12.0566C22 12.0936 22 12.131 22 12.169V17.212C22 18.0305 22 18.7061 21.9543 19.2561C21.9069 19.8274 21.805 20.3523 21.5496 20.8439C21.1701 21.5745 20.5744 22.1701 19.8439 22.5496C19.3522 22.805 18.8274 22.9069 18.256 22.9543C17.706 23 17.0305 23 16.2119 23H15.805C15.7972 23 15.7894 23 15.7814 23C15.6603 23 15.5157 23.0001 15.3883 22.9895C15.2406 22.9773 15.0292 22.9458 14.8085 22.8311C14.5345 22.6888 14.3111 22.4654 14.1688 22.1915C14.0542 21.9707 14.0227 21.7593 14.0104 21.6116C13.9998 21.4843 13.9999 21.3396 13.9999 21.2185L14 18C14 16.8954 13.1045 16 12 16C10.8954 16 9.99995 16.8954 9.99995 18L9.99996 21.2185C10 21.3396 10.0001 21.4843 9.98949 21.6116C9.97722 21.7593 9.94572 21.9707 9.83107 22.1915C9.68876 22.4654 9.46538 22.6888 9.19142 22.8311C8.9707 22.9458 8.75929 22.9773 8.6116 22.9895C8.48423 23.0001 8.33959 23 8.21847 23C8.21053 23 8.20268 23 8.19495 23H7.78798C6.96944 23 6.29389 23 5.74388 22.9543C5.17253 22.9069 4.64769 22.805 4.15605 22.5496C3.42548 22.1701 2.8298 21.5745 2.4503 20.8439C2.19492 20.3523 2.09305 19.8274 2.0456 19.2561C1.99993 18.7061 1.99994 18.0305 1.99995 17.212L1.99995 12.169C1.99995 12.131 1.99993 12.0936 1.99992 12.0566C1.99955 11.359 1.99928 10.832 2.1318 10.3287C2.24383 9.90321 2.42528 9.49916 2.66884 9.13277C2.95696 8.69935 3.35105 8.34941 3.87272 7.8862C3.90036 7.86165 3.92835 7.83679 3.95671 7.81159L9.22354 3.12996C9.58274 2.81064 9.89467 2.53335 10.1717 2.32363C10.4658 2.10095 10.781 1.90627 11.1611 1.79556Z"/>
</symbol>

<symbol viewBox="0 0 24 24" id="arrow_down">
<path fill-rule="evenodd" clip-rule="evenodd" d="M5.29289 8.29289C5.68342 7.90237 6.31658 7.90237 6.70711 8.29289L12 13.5858L17.2929 8.29289C17.6834 7.90237 18.3166 7.90237 18.7071 8.29289C19.0976 8.68342 19.0976 9.31658 18.7071 9.70711L12.8839 15.5303C12.3957 16.0185 11.6043 16.0185 11.1161 15.5303L5.29289 9.70711C4.90237 9.31658 4.90237 8.68342 5.29289 8.29289Z"/>
</symbol>

<symbol viewBox="0 0 24 24" id="arrow_left">
<path fill-rule="evenodd" clip-rule="evenodd" d="M15.7071 5.29289C16.0976 5.68342 16.0976 6.31658 15.7071 6.70711L10.4142 12L15.7071 17.2929C16.0976 17.6834 16.0976 18.3166 15.7071 18.7071C15.3165 19.0976 14.6834 19.0976 14.2929 18.7071L8.46963 12.8839C7.98148 12.3957 7.98148 11.6043 8.46963 11.1161L14.2929 5.29289C14.6834 4.90237 15.3165 4.90237 15.7071 5.29289Z"/>
</symbol>

<symbol viewBox="0 0 24 24" id="camera">
<path fill-rule="evenodd" clip-rule="evenodd" d="M6.39252 3.83025C7.04361 2.75654 8.20958 2 9.54508 2H14.4549C15.7904 2 16.9564 2.75654 17.6075 3.83025C17.8059 4.15753 18.0281 4.50118 18.257 4.81533C18.3665 4.96564 18.5804 5.08571 18.8771 5.08571H18.9998C21.209 5.08571 23 6.87668 23 9.08571V17C23 19.2091 21.2091 21 19 21H5C2.79086 21 1 19.2091 1 17V9.08572C1 6.87668 2.79052 5.08571 4.99976 5.08571H5.12238C5.41912 5.08571 5.63348 4.96564 5.74301 4.81533C5.97193 4.50118 6.19407 4.15753 6.39252 3.83025ZM9.54508 4C8.98673 4 8.43356 4.32159 8.10267 4.86727C7.88516 5.22596 7.63139 5.61989 7.35939 5.99317C6.81056 6.74635 5.94404 7.08571 5.12286 7.08571H5.00024C3.89578 7.08571 3 7.98104 3 9.08572V17C3 18.1046 3.89543 19 5 19H19C20.1046 19 21 18.1046 21 17V9.08571C21 7.98104 20.1047 7.08571 19.0002 7.08571H18.8776C18.0564 7.08571 17.1894 6.74635 16.6406 5.99317C16.3686 5.61989 16.1148 5.22596 15.8973 4.86727C15.5664 4.32159 15.0133 4 14.4549 4H9.54508ZM12 9C10.3431 9 9 10.3431 9 12C9 13.6569 10.3431 15 12 15C13.6569 15 15 13.6569 15 12C15 10.3431 13.6569 9 12 9ZM7 12C7 9.23858 9.23858 7 12 7C14.7614 7 17 9.23858 17 12C17 14.7614 14.7614 17 12 17C9.23858 17 7 14.7614 7 12Z"/>
</symbol>

<!-- Footer -->
		<symbol viewBox="0 0 24 24" id="facebook">
 			<path d="M12,2C6.477,2,2,6.477,2,12c0,5.013,3.693,9.153,8.505,9.876V14.65H8.031v-2.629h2.474v-1.749 c0-2.896,1.411-4.167,3.818-4.167c1.153,0,1.762,0.085,2.051,0.124v2.294h-1.642c-1.022,0-1.379,0.969-1.379,2.061v1.437h2.995 l-0.406,2.629h-2.588v7.247C18.235,21.236,22,17.062,22,12C22,6.477,17.523,2,12,2z"/> 
			</symbol>

		<symbol viewBox="0 0 24 24" id="messender">
		<path d="M12,2C6.486,2,2,6.262,2,11.5c0,2.545,1.088,4.988,3,6.772v4.346l4.08-2.039C10.039,20.858,11.02,21,12,21 c5.514,0,10-4.262,10-9.5S17.514,2,12,2z M13.167,14.417l-2.917-2.333L5,14.417l5.833-5.833l2.917,2.333L19,8.583L13.167,14.417z"/> 
		</symbol>

		<symbol viewBox="0 0 24 24" id="telegram">
		<path d="M 20.302734 2.984375 C 20.013769 2.996945 19.748583 3.080055 19.515625 3.171875 C 19.300407 3.256634 18.52754 3.5814726 17.296875 4.0976562 C 16.06621 4.61384 14.435476 5.2982348 12.697266 6.0292969 C 9.2208449 7.4914211 5.314238 9.1361259 3.3125 9.9785156 C 3.243759 10.007156 2.9645852 10.092621 2.65625 10.328125 C 2.3471996 10.564176 2.0039062 11.076462 2.0039062 11.636719 C 2.0039062 12.088671 2.2295201 12.548966 2.5019531 12.8125 C 2.7743861 13.076034 3.0504903 13.199244 3.28125 13.291016 L 3.28125 13.289062 C 4.0612776 13.599827 6.3906939 14.531938 6.9453125 14.753906 C 7.1420423 15.343433 7.9865895 17.867278 8.1875 18.501953 L 8.1855469 18.501953 C 8.3275588 18.951162 8.4659791 19.243913 8.6582031 19.488281 C 8.7543151 19.610465 8.8690398 19.721184 9.0097656 19.808594 C 9.0637596 19.842134 9.1235454 19.868148 9.1835938 19.892578 C 9.191962 19.896131 9.2005867 19.897012 9.2089844 19.900391 L 9.1855469 19.894531 C 9.2029579 19.901531 9.2185841 19.911859 9.2363281 19.917969 C 9.2652427 19.927926 9.2852873 19.927599 9.3242188 19.935547 C 9.4612233 19.977694 9.5979794 20.005859 9.7246094 20.005859 C 10.26822 20.005859 10.601562 19.710937 10.601562 19.710938 L 10.623047 19.695312 L 12.970703 17.708984 L 15.845703 20.369141 C 15.898217 20.443289 16.309604 21 17.261719 21 C 17.829844 21 18.279025 20.718791 18.566406 20.423828 C 18.853787 20.128866 19.032804 19.82706 19.113281 19.417969 L 19.115234 19.416016 C 19.179414 19.085834 21.931641 5.265625 21.931641 5.265625 L 21.925781 5.2890625 C 22.011441 4.9067171 22.036735 4.5369631 21.935547 4.1601562 C 21.834358 3.7833495 21.561271 3.4156252 21.232422 3.2226562 C 20.903572 3.0296874 20.591699 2.9718046 20.302734 2.984375 z M 19.908203 5.1738281 C 19.799442 5.7198576 17.33401 18.105877 17.181641 18.882812 L 13.029297 15.041016 L 10.222656 17.414062 L 11 14.375 C 11 14.375 16.362547 8.9468594 16.685547 8.6308594 C 16.945547 8.3778594 17 8.2891719 17 8.2011719 C 17 8.0841719 16.939781 8 16.800781 8 C 16.675781 8 16.506016 8.1197812 16.416016 8.1757812 C 15.272368 8.8887854 10.401283 11.664685 8.0058594 13.027344 C 7.8617016 12.96954 5.6973962 12.100458 4.53125 11.634766 C 6.6055146 10.76177 10.161156 9.2658083 13.472656 7.8730469 C 15.210571 7.142109 16.840822 6.4570977 18.070312 5.9414062 C 19.108158 5.5060977 19.649538 5.2807035 19.908203 5.1738281 z M 17.152344 19.025391 C 17.152344 19.025391 17.154297 19.025391 17.154297 19.025391 C 17.154252 19.025621 17.152444 19.03095 17.152344 19.03125 C 17.153615 19.024789 17.15139 19.03045 17.152344 19.025391 z"/>
		</symbol>

		<symbol viewBox="0 0 24 24" id="pinterest">
		<path d="M12,2C6.477,2,2,6.477,2,12c0,4.237,2.636,7.855,6.356,9.312c-0.087-0.791-0.167-2.005,0.035-2.868 c0.182-0.78,1.172-4.971,1.172-4.971s-0.299-0.599-0.299-1.484c0-1.391,0.806-2.428,1.809-2.428c0.853,0,1.265,0.641,1.265,1.408 c0,0.858-0.546,2.141-0.828,3.329c-0.236,0.996,0.499,1.807,1.481,1.807c1.777,0,3.143-1.874,3.143-4.579 c0-2.394-1.72-4.068-4.177-4.068c-2.845,0-4.515,2.134-4.515,4.34c0,0.859,0.331,1.781,0.744,2.282 c0.082,0.099,0.093,0.186,0.069,0.287c-0.076,0.316-0.244,0.995-0.277,1.134c-0.043,0.183-0.145,0.222-0.334,0.133 c-1.249-0.582-2.03-2.408-2.03-3.874c0-3.154,2.292-6.052,6.608-6.052c3.469,0,6.165,2.472,6.165,5.776 c0,3.447-2.173,6.22-5.189,6.22c-1.013,0-1.966-0.527-2.292-1.148c0,0-0.502,1.909-0.623,2.378 c-0.226,0.868-0.835,1.958-1.243,2.622C9.975,21.843,10.969,22,12,22c5.522,0,10-4.478,10-10S17.523,2,12,2z"/> 
		</symbol>

</svg>




