<svg width="25" height="24" viewBox="0 0 25 24" fill="none" xmlns="http://www.w3.org/2000/svg">
<path d="M10.7891 14.0185L14.6297 11.8066L10.7891 9.59467V14.0185Z" fill="white"/>
<path d="M12.2597 0C5.74012 0 0.453125 5.287 0.453125 11.8066C0.453125 18.3262 5.74012 23.6132 12.2597 23.6132C18.7794 23.6132 24.0663 18.3262 24.0663 11.8066C24.0663 5.287 18.7794 0 12.2597 0ZM19.6371 11.8187C19.6371 11.8187 19.6371 14.2131 19.3333 15.3677C19.1631 15.9997 18.6648 16.498 18.0328 16.6681C16.8782 16.972 12.2597 16.972 12.2597 16.972C12.2597 16.972 7.65336 16.972 6.48668 16.656C5.8547 16.4859 5.35639 15.9875 5.18615 15.3555C4.88223 14.2131 4.88223 11.8066 4.88223 11.8066C4.88223 11.8066 4.88223 9.41236 5.18615 8.25775C5.35621 7.62576 5.86677 7.11521 6.48668 6.94514C7.64129 6.64122 12.2597 6.64122 12.2597 6.64122C12.2597 6.64122 16.8782 6.64122 18.0328 6.95721C18.6648 7.12728 19.1631 7.62576 19.3333 8.25775C19.6493 9.41236 19.6371 11.8187 19.6371 11.8187Z" fill="white"/>
</svg>
